<svg version="1.1" id="Layer_1" xmlns="http://www.w3.org/2000/svg" xmlns:xlink="http://www.w3.org/1999/xlink" x="0px" y="0px"
	 width="100%" viewBox="0 0 512 512" enable-background="new 0 0 512 512" xml:space="preserve">
<path fill="#1B202B" opacity="1.000000" stroke="none" 
	d="
M513.000000,64.000000 
	C513.000000,213.621231 513.000000,363.242462 513.000000,512.931885 
	C342.430603,512.931885 171.861160,512.931885 1.000000,512.931885 
	C1.000000,363.642700 1.000000,214.285233 1.324617,64.368492 
	C2.438857,62.771290 3.387475,61.818211 3.993643,60.682373 
	C10.441665,48.600029 20.891371,42.969414 34.170895,42.960907 
	C182.767502,42.865726 331.364197,42.856705 479.960754,42.977894 
	C492.994202,42.988522 503.374146,48.574062 509.878418,60.387642 
	C510.629211,61.751286 511.945740,62.803436 513.000000,64.000000 
M87.514473,438.503235 
	C85.839821,441.818298 84.165169,445.133331 82.401939,448.623718 
	C199.189240,448.623718 315.113251,448.623718 431.775604,448.623718 
	C429.613129,444.652100 427.802551,441.326752 425.939331,437.292786 
	C423.894501,429.173248 418.771393,427.375641 410.564087,427.402039 
	C307.952484,427.731934 205.339447,427.618134 102.726784,427.618195 
	C92.104134,427.618195 92.103516,427.618073 88.059998,437.508484 
	C87.999969,437.655304 88.028282,437.838226 87.514473,438.503235 
M22.321455,85.508560 
	C22.322144,186.810623 22.321590,288.112701 22.330763,389.414764 
	C22.330990,391.911926 22.254599,394.429962 22.534567,396.901978 
	C23.144548,402.287903 26.589148,405.643219 31.998602,406.201874 
	C34.144768,406.423553 36.325321,406.347382 38.490219,406.347473 
	C184.111984,406.353027 329.733734,406.352692 475.355499,406.350739 
	C477.188110,406.350708 479.025269,406.401489 480.852570,406.295532 
	C487.542145,405.907593 491.143890,402.303925 491.604492,395.557190 
	C491.706451,394.063599 491.673462,392.559631 491.673492,391.060425 
	C491.676117,287.425720 491.676270,183.791000 491.671722,80.156296 
	C491.671631,78.490952 491.712463,76.816254 491.560150,75.161942 
	C491.003723,69.118019 487.329956,65.464607 481.259186,64.940460 
	C479.438507,64.783264 477.596344,64.855515 475.764008,64.855476 
	C329.975616,64.852455 184.187256,64.852333 38.398876,64.856499 
	C36.400238,64.856560 34.386768,64.768898 32.405773,64.971748 
	C26.692957,65.556725 22.934172,69.300827 22.468327,75.022530 
	C22.212114,78.169426 22.355688,81.348885 22.321455,85.508560 
z"/>
<path fill="#000000" opacity="1.000000" stroke="none" 
	d="
M513.000000,63.531342 
	C511.945740,62.803436 510.629211,61.751286 509.878418,60.387642 
	C503.374146,48.574062 492.994202,42.988522 479.960754,42.977894 
	C331.364197,42.856705 182.767502,42.865726 34.170895,42.960907 
	C20.891371,42.969414 10.441665,48.600029 3.993643,60.682373 
	C3.387475,61.818211 2.438857,62.771290 1.324617,63.904610 
	C1.000000,43.014400 1.000000,22.028799 1.000003,1.047945 
	C171.666672,1.052692 342.333344,1.052692 513.000000,1.052692 
	C513.000000,21.757816 513.000000,42.410252 513.000000,63.531342 
z"/>
<path fill="#63677F" opacity="1.000000" stroke="none" 
	d="
M22.320234,85.011108 
	C22.355688,81.348885 22.212114,78.169426 22.468327,75.022530 
	C22.934172,69.300827 26.692957,65.556725 32.405773,64.971748 
	C34.386768,64.768898 36.400238,64.856560 38.398876,64.856499 
	C184.187256,64.852333 329.975616,64.852455 475.764008,64.855476 
	C477.596344,64.855515 479.438507,64.783264 481.259186,64.940460 
	C487.329956,65.464607 491.003723,69.118019 491.560150,75.161942 
	C491.712463,76.816254 491.671631,78.490952 491.671722,80.156296 
	C491.676270,183.791000 491.676117,287.425720 491.673492,391.060425 
	C491.673462,392.559631 491.706451,394.063599 491.604492,395.557190 
	C491.143890,402.303925 487.542145,405.907593 480.852570,406.295532 
	C479.025269,406.401489 477.188110,406.350708 475.355499,406.350739 
	C329.733734,406.352692 184.111984,406.353027 38.490219,406.347473 
	C36.325321,406.347382 34.144768,406.423553 31.998602,406.201874 
	C26.589148,405.643219 23.144548,402.287903 22.534567,396.901978 
	C22.254599,394.429962 22.330990,391.911926 22.330763,389.414764 
	C22.321590,288.112701 22.322144,186.810623 22.320234,85.011108 
M245.448044,114.162788 
	C243.263397,109.539597 239.526672,107.803528 234.527435,107.830910 
	C217.862396,107.922218 201.196442,107.834793 184.530975,107.870827 
	C175.256500,107.890877 171.880829,111.227959 171.877533,120.551048 
	C171.850677,196.546036 171.849533,272.541016 171.875641,348.536011 
	C171.879074,358.565765 177.215485,362.134369 187.200424,360.359985 
	C203.068802,357.540070 219.045837,355.280182 235.029388,353.183472 
	C242.195969,352.243347 246.031174,348.933380 246.101791,341.714722 
	C246.209396,330.716461 246.126755,319.716461 246.158249,308.717255 
	C246.162170,307.346771 246.369110,305.976868 246.481979,304.606689 
	C248.195755,306.456146 249.101639,308.385712 249.913605,310.354065 
	C254.678986,321.905762 259.556335,333.414062 264.114563,345.047241 
	C266.264008,350.533020 270.039703,353.284943 275.734161,353.736847 
	C279.219238,354.013428 282.784393,353.879730 286.179962,354.579132 
	C299.043427,357.228729 311.891205,359.979065 324.669800,363.008423 
	C335.701752,365.623718 342.117584,361.329834 342.121948,350.642212 
	C342.153259,273.813934 342.149017,196.985672 342.123566,120.157417 
	C342.120667,111.439705 338.647583,107.911552 330.077667,107.880486 
	C313.412323,107.820061 296.746460,107.824646 280.081085,107.877632 
	C271.423737,107.905151 267.915680,111.394516 267.878021,119.996033 
	C267.818207,133.661545 267.868042,147.327515 267.843567,160.993225 
	C267.840851,162.518036 267.656891,164.042511 267.556946,165.567139 
	C267.228760,165.586258 266.900574,165.605377 266.572388,165.624512 
	C259.635071,148.698975 252.697769,131.773438 245.448044,114.162788 
z"/>
<path fill="#A9B5D9" opacity="1.000000" stroke="none" 
	d="
M425.991974,438.001404 
	C427.802551,441.326752 429.613129,444.652100 431.775604,448.623718 
	C315.113251,448.623718 199.189240,448.623718 82.401939,448.623718 
	C84.165169,445.133331 85.839821,441.818298 88.232193,438.273804 
	C114.914688,438.051056 140.879456,438.067505 166.844238,438.062622 
	C253.226822,438.046356 339.609406,438.022400 425.991974,438.001404 
z"/>
<path fill="#8D92B2" opacity="1.000000" stroke="none" 
	d="
M425.965637,437.647095 
	C339.609406,438.022400 253.226822,438.046356 166.844238,438.062622 
	C140.879456,438.067505 114.914688,438.051056 88.482635,438.024353 
	C88.028282,437.838226 87.999969,437.655304 88.059998,437.508484 
	C92.103516,427.618073 92.104134,427.618195 102.726784,427.618195 
	C205.339447,427.618134 307.952484,427.731934 410.564087,427.402039 
	C418.771393,427.375641 423.894501,429.173248 425.965637,437.647095 
z"/>
<path fill="#2B3244" opacity="1.000000" stroke="none" 
	d="
M245.604248,114.505348 
	C252.697769,131.773438 259.635071,148.698975 266.572388,165.624512 
	C266.900574,165.605377 267.228760,165.586258 267.556946,165.567139 
	C267.656891,164.042511 267.840851,162.518036 267.843567,160.993225 
	C267.868042,147.327515 267.818207,133.661545 267.878021,119.996033 
	C267.915680,111.394516 271.423737,107.905151 280.081085,107.877632 
	C296.746460,107.824646 313.412323,107.820061 330.077667,107.880486 
	C338.647583,107.911552 342.120667,111.439705 342.123566,120.157417 
	C342.149017,196.985672 342.153259,273.813934 342.121948,350.642212 
	C342.117584,361.329834 335.701752,365.623718 324.669800,363.008423 
	C311.891205,359.979065 299.043427,357.228729 286.179962,354.579132 
	C282.784393,353.879730 279.219238,354.013428 275.734161,353.736847 
	C270.039703,353.284943 266.264008,350.533020 264.114563,345.047241 
	C259.556335,333.414062 254.678986,321.905762 249.913605,310.354065 
	C249.101639,308.385712 248.195755,306.456146 246.481979,304.606689 
	C246.369110,305.976868 246.162170,307.346771 246.158249,308.717255 
	C246.126755,319.716461 246.209396,330.716461 246.101791,341.714722 
	C246.031174,348.933380 242.195969,352.243347 235.029388,353.183472 
	C219.045837,355.280182 203.068802,357.540070 187.200424,360.359985 
	C177.215485,362.134369 171.879074,358.565765 171.875641,348.536011 
	C171.849533,272.541016 171.850677,196.546036 171.877533,120.551048 
	C171.880829,111.227959 175.256500,107.890877 184.530975,107.870827 
	C201.196442,107.834793 217.862396,107.922218 234.527435,107.830910 
	C239.526672,107.803528 243.263397,109.539597 245.604248,114.505348 
M288.614990,275.886475 
	C281.736267,259.097900 274.853516,242.310974 267.979736,225.520370 
	C255.366928,194.710953 242.783829,163.889267 230.079346,133.117706 
	C229.426437,131.536301 227.793716,129.247162 226.546600,129.201187 
	C217.450317,128.865738 208.335968,129.020584 198.509064,129.020584 
	C199.385788,131.376740 199.956421,133.060638 200.631332,134.701660 
	C213.104019,165.028427 225.588959,195.350159 238.071671,225.672836 
	C252.138901,259.844574 266.250397,293.998291 280.204407,328.216187 
	C281.568115,331.560303 283.259155,332.962524 286.998138,333.301819 
	C294.276154,333.962219 301.477448,335.458435 308.715912,336.573334 
	C310.063385,336.780884 311.436249,336.823669 313.562317,337.009277 
	C305.113861,316.308594 297.010132,296.452606 288.614990,275.886475 
M309.910950,271.589142 
	C313.246155,279.731873 316.581360,287.874603 319.916565,296.017334 
	C320.154144,295.889618 320.391693,295.761932 320.629272,295.634247 
	C320.629272,240.235214 320.629272,184.836182 320.629272,129.319687 
	C310.017456,129.319687 299.777924,129.319687 289.298187,129.319687 
	C289.184387,130.566452 289.019501,131.533630 289.018982,132.500900 
	C289.003723,160.990967 288.973450,189.481125 289.068085,217.970871 
	C289.075012,220.049927 289.754578,222.227478 290.546722,224.187317 
	C296.847046,239.774811 303.250305,255.320694 309.910950,271.589142 
M193.000015,249.500000 
	C193.000015,278.425598 193.000015,307.351196 193.000015,336.435394 
	C203.964996,334.930115 214.293839,333.512177 224.668274,332.087952 
	C224.795166,331.010742 224.974854,330.194366 224.975418,329.377869 
	C224.993042,303.733643 225.028610,278.089294 224.929703,252.445465 
	C224.921692,250.368958 224.223679,248.193848 223.424057,246.237106 
	C214.172058,223.596664 204.841125,200.988464 195.520355,178.376160 
	C194.983047,177.072647 194.352661,175.807510 193.765610,174.524506 
	C193.510406,174.589157 193.255219,174.653824 193.000015,174.718475 
	C193.000015,199.312317 193.000015,223.906158 193.000015,249.500000 
z"/>
<path fill="#ED4E74" opacity="1.000000" stroke="none" 
	d="
M288.760681,276.241516 
	C297.010132,296.452606 305.113861,316.308594 313.562317,337.009277 
	C311.436249,336.823669 310.063385,336.780884 308.715912,336.573334 
	C301.477448,335.458435 294.276154,333.962219 286.998138,333.301819 
	C283.259155,332.962524 281.568115,331.560303 280.204407,328.216187 
	C266.250397,293.998291 252.138901,259.844574 238.071671,225.672836 
	C225.588959,195.350159 213.104019,165.028427 200.631332,134.701660 
	C199.956421,133.060638 199.385788,131.376740 198.509064,129.020584 
	C208.335968,129.020584 217.450317,128.865738 226.546600,129.201187 
	C227.793716,129.247162 229.426437,131.536301 230.079346,133.117706 
	C242.783829,163.889267 255.366928,194.710953 267.979736,225.520370 
	C274.853516,242.310974 281.736267,259.097900 288.760681,276.241516 
z"/>
<path fill="#D9476A" opacity="1.000000" stroke="none" 
	d="
M309.766479,271.234253 
	C303.250305,255.320694 296.847046,239.774811 290.546722,224.187317 
	C289.754578,222.227478 289.075012,220.049927 289.068085,217.970871 
	C288.973450,189.481125 289.003723,160.990967 289.018982,132.500900 
	C289.019501,131.533630 289.184387,130.566452 289.298187,129.319687 
	C299.777924,129.319687 310.017456,129.319687 320.629272,129.319687 
	C320.629272,184.836182 320.629272,240.235214 320.629272,295.634247 
	C320.391693,295.761932 320.154144,295.889618 319.916565,296.017334 
	C316.581360,287.874603 313.246155,279.731873 309.766479,271.234253 
z"/>
<path fill="#D8476A" opacity="1.000000" stroke="none" 
	d="
M193.000015,249.000000 
	C193.000015,223.906158 193.000015,199.312317 193.000015,174.718475 
	C193.255219,174.653824 193.510406,174.589157 193.765610,174.524506 
	C194.352661,175.807510 194.983047,177.072647 195.520355,178.376160 
	C204.841125,200.988464 214.172058,223.596664 223.424057,246.237106 
	C224.223679,248.193848 224.921692,250.368958 224.929703,252.445465 
	C225.028610,278.089294 224.993042,303.733643 224.975418,329.377869 
	C224.974854,330.194366 224.795166,331.010742 224.668274,332.087952 
	C214.293839,333.512177 203.964996,334.930115 193.000015,336.435394 
	C193.000015,307.351196 193.000015,278.425598 193.000015,249.000000 
z"/>
</svg>